<svg xmlns="http://www.w3.org/2000/svg" width="64" height="64" viewBox="0 0 64 64" fill="none">
  <defs>
    <linearGradient id="g" x1="10" y1="10" x2="54" y2="54" gradientUnits="userSpaceOnUse">
      <stop stop-color="#22c55e"/>
      <stop offset="1" stop-color="#16a34a"/>
    </linearGradient>
    <filter id="s" x="-20%" y="-20%" width="140%" height="140%">
      <feDropShadow dx="0" dy="2" stdDeviation="2" flood-color="#000" flood-opacity="0.25"/>
    </filter>
  </defs>

  <g filter="url(#s)">
    <path d="M32 17c-8.5 0-15 6.7-15 15.8C17 44.5 23.6 52 32 52s15-7.5 15-19.2C47 23.7 40.5 17 32 17Z" fill="url(#g)"/>
    <path d="M32 18v33" stroke="#064e3b" stroke-width="2" stroke-linecap="round" opacity="0.65"/>
    <path d="M32 12c-4.6 0-8.5 2.7-10 6.6 3.1-1.1 6.4-1.7 10-1.7 3.6 0 6.9.6 10 1.7C40.5 14.7 36.6 12 32 12Z" fill="#16a34a"/>
    <path d="M24 14c-3.5-3.3-6.7-4.5-9.5-3.6" stroke="#064e3b" stroke-width="2" stroke-linecap="round"/>
    <path d="M40 14c3.5-3.3 6.7-4.5 9.5-3.6" stroke="#064e3b" stroke-width="2" stroke-linecap="round"/>
    <path d="M18 26l-8-4M18 34l-9 0M19 42l-8 4" stroke="#064e3b" stroke-width="2.2" stroke-linecap="round"/>
    <path d="M46 26l8-4M46 34l9 0M45 42l8 4" stroke="#064e3b" stroke-width="2.2" stroke-linecap="round"/>
    <path d="M26 24c-3.8 3.3-5.5 8.6-4.6 14.8" stroke="#bbf7d0" stroke-width="2" stroke-linecap="round" opacity="0.9"/>
  </g>
</svg>
